<svg width="22" height="22" viewBox="0 0 22 22" fill="none" xmlns="http://www.w3.org/2000/svg">
<path fill-rule="evenodd" clip-rule="evenodd" d="M8.3335 3.5C8.66836 3.5 8.96265 3.72198 9.05464 4.04396L9.86784 6.89015C10.2238 8.13593 11.1976 9.10972 12.4433 9.46566L15.2895 10.2789C15.6115 10.3709 15.8335 10.6651 15.8335 11C15.8335 11.3349 15.6115 11.6291 15.2895 11.7211L12.4433 12.5343C11.1976 12.8903 10.2238 13.8641 9.86784 15.1099L9.05464 17.956C8.96265 18.278 8.66836 18.5 8.3335 18.5C7.99864 18.5 7.70435 18.278 7.61235 17.956L6.79916 15.1099C6.44322 13.8641 5.46942 12.8903 4.22364 12.5343L1.37746 11.7211C1.05548 11.6291 0.833496 11.3349 0.833496 11C0.833496 10.6651 1.05548 10.3709 1.37746 10.2789L4.22365 9.46566C5.46942 9.10972 6.44322 8.13593 6.79916 6.89015L7.61235 4.04396C7.70435 3.72198 7.99864 3.5 8.3335 3.5Z" fill="#262626"/>
<path fill-rule="evenodd" clip-rule="evenodd" d="M17.3335 0.5C17.6776 0.5 17.9776 0.734223 18.0611 1.0681L18.32 2.10356C18.5551 3.04406 19.2894 3.7784 20.2299 4.01353L21.2654 4.27239C21.5993 4.35586 21.8335 4.65585 21.8335 5C21.8335 5.34415 21.5993 5.64414 21.2654 5.72761L20.2299 5.98647C19.2894 6.2216 18.5551 6.95594 18.32 7.89644L18.0611 8.9319C17.9776 9.26578 17.6776 9.5 17.3335 9.5C16.9893 9.5 16.6894 9.26578 16.6059 8.9319L16.347 7.89644C16.1119 6.95594 15.3776 6.2216 14.4371 5.98647L13.4016 5.72761C13.0677 5.64414 12.8335 5.34415 12.8335 5C12.8335 4.65585 13.0677 4.35586 13.4016 4.27239L14.4371 4.01353C15.3776 3.7784 16.1119 3.04406 16.347 2.10356L16.6059 1.0681C16.6894 0.734223 16.9893 0.5 17.3335 0.5Z" fill="#262626"/>
<path fill-rule="evenodd" clip-rule="evenodd" d="M15.8335 14C16.1563 14 16.4429 14.2066 16.545 14.5128L16.9393 15.6956C17.0886 16.1435 17.44 16.4949 17.8879 16.6442L19.0707 17.0385C19.3769 17.1406 19.5835 17.4272 19.5835 17.75C19.5835 18.0728 19.3769 18.3594 19.0707 18.4615L17.8879 18.8558C17.44 19.0051 17.0886 19.3565 16.9393 19.8044L16.545 20.9872C16.4429 21.2934 16.1563 21.5 15.8335 21.5C15.5107 21.5 15.2241 21.2934 15.122 20.9872L14.7277 19.8044C14.5784 19.3565 14.227 19.0051 13.7791 18.8558L12.5963 18.4615C12.2901 18.3594 12.0835 18.0728 12.0835 17.75C12.0835 17.4272 12.2901 17.1406 12.5963 17.0385L13.7791 16.6442C14.227 16.4949 14.5784 16.1435 14.7277 15.6956L15.122 14.5128C15.2241 14.2066 15.5107 14 15.8335 14Z" fill="#262626"/>
</svg>
