<svg width="21" height="20" viewBox="0 0 21 20" fill="none" xmlns="http://www.w3.org/2000/svg">
<path fill-rule="evenodd" clip-rule="evenodd" d="M17.7825 6.44818L14.7213 8.99916C14.8709 9.65744 14.8709 10.3426 14.7213 11.0008L17.7825 13.5518C18.8505 11.3118 18.8505 8.68824 17.7825 6.44818ZM13.8853 17.449L11.3343 14.3878C10.6761 14.5374 9.99094 14.5374 9.33266 14.3878L6.78167 17.449C9.02173 18.517 11.6453 18.517 13.8853 17.449ZM2.88452 13.5518L5.9457 11.0008C5.79609 10.3426 5.7961 9.65744 5.9457 8.99916L2.88452 6.44818C1.81649 8.68824 1.81649 11.3118 2.88452 13.5518ZM6.78167 2.55102L9.33266 5.6122C9.99094 5.4626 10.6761 5.4626 11.3343 5.6122L13.8853 2.55102C11.6453 1.48299 9.02174 1.48299 6.78167 2.55102ZM15.439 1.6912C16.0759 2.08325 16.677 2.55493 17.2278 3.10571C17.7786 3.65649 18.2502 4.25755 18.6423 4.89448C20.5639 8.01631 20.5639 11.9837 18.6423 15.1055C18.2502 15.7424 17.7786 16.3435 17.2278 16.8943C16.677 17.4451 16.0759 17.9167 15.439 18.3088C12.3172 20.2304 8.34981 20.2304 5.22798 18.3088C4.59105 17.9167 3.98999 17.4451 3.43921 16.8943C2.88842 16.3435 2.41675 15.7424 2.02469 15.1055C0.103097 11.9837 0.103096 8.01631 2.02469 4.89448C2.41675 4.25755 2.88842 3.65649 3.43921 3.10571C3.98999 2.55493 4.59105 2.08325 5.22798 1.6912C8.3498 -0.230399 12.3172 -0.230399 15.439 1.6912ZM12.4548 7.87868C12.1293 7.55313 11.7493 7.31907 11.3449 7.17471C10.6925 6.94176 9.9745 6.94176 9.32205 7.17471C8.91773 7.31907 8.53773 7.55313 8.21218 7.87868C7.88662 8.20423 7.65256 8.58423 7.50821 8.98855C7.27526 9.641 7.27526 10.359 7.50821 11.0114C7.65256 11.4158 7.88662 11.7958 8.21218 12.1213C8.53773 12.4469 8.91773 12.6809 9.32205 12.8253C9.9745 13.0582 10.6925 13.0582 11.3449 12.8253C11.7493 12.6809 12.1293 12.4469 12.4548 12.1213C12.7804 11.7958 13.0144 11.4158 13.1588 11.0115C13.3917 10.359 13.3917 9.641 13.1588 8.98855C13.0144 8.58423 12.7804 8.20423 12.4548 7.87868Z" fill="#262626"/>
</svg>
