<svg width="21" height="20" viewBox="0 0 21 20" fill="none" xmlns="http://www.w3.org/2000/svg">
<path d="M5.92631 16.9079C6.75567 16.9079 7.43514 17.6018 7.43514 18.459C7.43514 19.3061 6.75567 20 5.92631 20C5.08697 20 4.4075 19.3061 4.4075 18.459C4.4075 17.6018 5.08697 16.9079 5.92631 16.9079ZM17.1676 16.9079C17.9969 16.9079 18.6764 17.6018 18.6764 18.459C18.6764 19.3061 17.9969 20 17.1676 20C16.3282 20 15.6487 19.3061 15.6487 18.459C15.6487 17.6018 16.3282 16.9079 17.1676 16.9079ZM1.38006 0.0087383L3.7632 0.375101C4.10293 0.437352 4.35274 0.722074 4.38272 1.06905L4.57257 3.35499C4.60254 3.68257 4.86234 3.92749 5.18209 3.92749H18.6766C19.2861 3.92749 19.6858 4.1418 20.0855 4.61123C20.4852 5.08067 20.5551 5.7542 20.4652 6.36549L19.5159 13.06C19.3361 14.3469 18.2569 15.2949 16.9879 15.2949H6.08639C4.75742 15.2949 3.65828 14.255 3.54837 12.908L2.62908 1.7834L1.12026 1.51807C0.72057 1.44664 0.440788 1.04864 0.510734 0.640433C0.580679 0.223045 0.970376 -0.0535127 1.38006 0.0087383ZM15.3891 7.70236H12.6213C12.2016 7.70236 11.8719 8.03912 11.8719 8.46774C11.8719 8.88615 12.2016 9.23312 12.6213 9.23312H15.3891C15.8088 9.23312 16.1386 8.88615 16.1386 8.46774C16.1386 8.03912 15.8088 7.70236 15.3891 7.70236Z" fill="#262626"/>
</svg>
