<svg width="21" height="20" viewBox="0 0 21 20" fill="none" xmlns="http://www.w3.org/2000/svg">
<path d="M15.5482 2.34537C13.477 3.17395 11.2587 3.71314 8.94295 3.91296C8.27547 3.97055 7.59975 3.99996 6.91699 3.99996H6.16699C3.2675 3.99996 0.916992 6.35046 0.916992 9.24996C0.916992 11.8496 2.80644 14.0079 5.28696 14.4265C5.62123 15.7955 6.08505 17.1137 6.66464 18.3674C7.1287 19.3711 8.3388 19.6874 9.24728 19.1629L9.9036 18.784C10.7837 18.2759 11.0693 17.1913 10.6757 16.3158C10.4408 15.7935 10.2312 15.2573 10.0484 14.7089C11.9658 14.967 13.8089 15.4587 15.5482 16.1545C16.2739 13.9852 16.667 11.6635 16.667 9.24994C16.667 6.83642 16.2739 4.51472 15.5482 2.34537Z" fill="#262626"/>
<path d="M16.9276 1.74066C17.7311 4.09636 18.167 6.62224 18.167 9.24994C18.167 11.8776 17.7311 14.4035 16.9276 16.7593C16.8724 16.921 16.8157 17.082 16.7571 17.2422C16.6147 17.6311 16.8146 18.0619 17.2036 18.2043C17.5926 18.3466 18.0233 18.1467 18.1657 17.7578C18.3057 17.3753 18.4366 16.9883 18.558 16.5972C19.0816 14.9105 19.4297 13.1468 19.581 11.3277C20.0979 10.7893 20.417 10.0566 20.417 9.24996C20.417 8.44331 20.0979 7.71067 19.581 7.17222C19.4297 5.35313 19.0816 3.58942 18.558 1.90268C18.4366 1.51159 18.3057 1.12466 18.1657 0.742153C18.0233 0.35318 17.5926 0.153279 17.2036 0.295662C16.8146 0.438044 16.6147 0.868793 16.7571 1.25777C16.8157 1.41789 16.8724 1.57891 16.9276 1.74066Z" fill="#262626"/>
</svg>
