<svg width="21" height="20" viewBox="0 0 21 20" fill="none" xmlns="http://www.w3.org/2000/svg">
<path d="M10.667 0.25C11.0812 0.25 11.417 0.585786 11.417 1V3.25C11.417 3.66421 11.0812 4 10.667 4C10.2528 4 9.91699 3.66421 9.91699 3.25V1C9.91699 0.585786 10.2528 0.25 10.667 0.25Z" fill="#262626"/>
<path d="M6.16699 10C6.16699 7.51472 8.18171 5.5 10.667 5.5C13.1523 5.5 15.167 7.51472 15.167 10C15.167 12.4853 13.1523 14.5 10.667 14.5C8.18171 14.5 6.16699 12.4853 6.16699 10Z" fill="#262626"/>
<path d="M17.5613 4.16634C17.8542 3.87344 17.8542 3.39857 17.5613 3.10568C17.2684 2.81278 16.7936 2.81278 16.5007 3.10568L14.9097 4.69667C14.6168 4.98956 14.6168 5.46444 14.9097 5.75733C15.2026 6.05022 15.6775 6.05022 15.9703 5.75733L17.5613 4.16634Z" fill="#262626"/>
<path d="M20.417 10C20.417 10.4142 20.0812 10.75 19.667 10.75H17.417C17.0028 10.75 16.667 10.4142 16.667 10C16.667 9.58579 17.0028 9.25 17.417 9.25H19.667C20.0812 9.25 20.417 9.58579 20.417 10Z" fill="#262626"/>
<path d="M16.5006 16.8943C16.7935 17.1871 17.2683 17.1871 17.5612 16.8943C17.8541 16.6014 17.8541 16.1265 17.5612 15.8336L15.9702 14.2426C15.6773 13.9497 15.2025 13.9497 14.9096 14.2426C14.6167 14.5355 14.6167 15.0104 14.9096 15.3033L16.5006 16.8943Z" fill="#262626"/>
<path d="M10.667 16C11.0812 16 11.417 16.3358 11.417 16.75V19C11.417 19.4142 11.0812 19.75 10.667 19.75C10.2528 19.75 9.91699 19.4142 9.91699 19V16.75C9.91699 16.3358 10.2528 16 10.667 16Z" fill="#262626"/>
<path d="M6.42449 15.3033C6.71739 15.0104 6.71739 14.5355 6.42449 14.2426C6.1316 13.9497 5.65673 13.9497 5.36384 14.2426L3.77284 15.8336C3.47995 16.1265 3.47995 16.6014 3.77284 16.8943C4.06574 17.1872 4.54061 17.1872 4.8335 16.8943L6.42449 15.3033Z" fill="#262626"/>
<path d="M4.66699 10C4.66699 10.4142 4.33121 10.75 3.91699 10.75H1.66699C1.25278 10.75 0.916992 10.4142 0.916992 10C0.916992 9.58579 1.25278 9.25 1.66699 9.25H3.91699C4.33121 9.25 4.66699 9.58579 4.66699 10Z" fill="#262626"/>
<path d="M5.36372 5.75732C5.65662 6.05021 6.13149 6.05021 6.42438 5.75732C6.71727 5.46443 6.71727 4.98955 6.42438 4.69666L4.83339 3.10567C4.5405 2.81278 4.06562 2.81278 3.77273 3.10567C3.47984 3.39856 3.47984 3.87344 3.77273 4.16633L5.36372 5.75732Z" fill="#262626"/>
</svg>
